<svg width="28" height="28" viewBox="0 0 28 28" fill="none" xmlns="http://www.w3.org/2000/svg">
<path d="M15.5 1C8.59681 1 3 6.6306 3 13.5755C3 19.8512 7.57046 25.053 13.5473 26V17.2114H10.372V13.5755H13.5473V10.8048C13.5473 7.65057 15.4137 5.91121 18.2678 5.91121C19.6354 5.91121 21.0681 6.15646 21.0681 6.15646V9.24907H19.4879C17.9377 9.24907 17.4527 10.22 17.4527 11.2148V13.5729H20.9168L20.363 17.2089H17.4527V25.9975C23.4295 25.0555 28 19.8525 28 13.5755C28 6.6306 22.4032 1 15.5 1V1Z" fill="white"/>
</svg>
