<svg width="45" height="43" viewBox="0 0 45 43" fill="none" xmlns="http://www.w3.org/2000/svg">
<path d="M22.5025 1.84782e-06C10.0698 -0.00493274 0 9.87411 0 22.0675C0 31.7097 6.2993 39.906 15.0721 42.9161C16.2535 43.2073 16.0725 42.3832 16.0725 41.8206V37.9963C9.25036 38.7809 8.97386 34.3497 8.51637 33.6095C7.59133 32.06 5.40442 31.6652 6.05798 30.9251C7.61144 30.1405 9.19506 31.1224 11.0301 33.7822C12.3573 35.7116 14.9464 35.3859 16.2585 35.0652C16.5451 33.9056 17.1584 32.8693 18.003 32.065C10.9345 30.8214 7.98849 26.5876 7.98849 21.5543C7.98849 19.1117 8.80796 16.8664 10.4167 15.0554C9.39113 12.07 10.5122 9.51389 10.6631 9.13392C13.584 8.87732 16.6205 11.1867 16.8568 11.3693C18.5158 10.9301 20.4111 10.6982 22.5327 10.6982C24.6643 10.6982 26.5646 10.94 28.2387 11.3841C28.8068 10.9597 31.6222 8.97602 34.3369 9.21781C34.4827 9.59777 35.5787 12.0947 34.6135 15.0406C36.2423 16.8566 37.0718 19.1215 37.0718 21.5691C37.0718 26.6122 34.1057 30.851 27.0171 32.0748C27.6243 32.6609 28.1063 33.3599 28.4352 34.1309C28.7641 34.9019 28.9331 35.7294 28.9325 36.5653V42.1167C28.9727 42.5608 28.9325 43 29.6866 43C38.5901 40.054 45 31.7985 45 22.0724C45 9.87411 34.9251 1.84782e-06 22.5025 1.84782e-06V1.84782e-06Z" fill="#504F60"/>
</svg>
