<svg width="32" height="32" viewBox="0 0 32 32" fill="none" xmlns="http://www.w3.org/2000/svg">
<path d="M19.8491 15.6292C19.8491 13.2848 17.9736 11.4093 15.6292 11.4093C13.2848 11.4093 11.4093 13.2848 11.4093 15.6292C11.4093 17.9736 13.2848 19.8491 15.6292 19.8491C17.9736 19.8491 19.8491 17.9736 19.8491 15.6292ZM22.0372 15.6292C22.0372 19.2239 19.2239 22.0372 15.6292 22.0372C12.0345 22.0372 9.22123 19.2239 9.22123 15.6292C9.22123 12.0345 12.0345 9.22123 15.6292 9.22123C19.2239 9.22123 22.0372 12.0345 22.0372 15.6292ZM23.7564 8.90865C23.7564 9.8464 23.1312 10.4716 22.1934 10.4716C21.2557 10.4716 20.6305 9.8464 20.6305 8.90865C20.6305 7.9709 21.2557 7.34573 22.1934 7.34573C23.1312 7.34573 23.7564 8.12719 23.7564 8.90865ZM15.6292 5.31394C13.7537 5.31394 9.8464 5.15765 8.28348 5.78281C7.18944 6.25169 6.25169 7.18944 5.93911 8.28348C5.31394 9.8464 5.47023 13.7537 5.47023 15.6292C5.47023 17.5047 5.31394 21.412 5.93911 22.9749C6.25169 24.069 7.18944 25.0067 8.28348 25.3193C9.8464 25.9445 13.91 25.7882 15.6292 25.7882C17.3484 25.7882 21.412 25.9445 22.9749 25.3193C24.069 24.8504 24.8504 24.069 25.3193 22.9749C25.9445 21.2557 25.7882 17.3484 25.7882 15.6292C25.7882 13.91 25.9445 9.8464 25.3193 8.28348C25.0067 7.18944 24.069 6.25169 22.9749 5.93911C21.412 5.15765 17.5047 5.31394 15.6292 5.31394ZM28.1325 15.6292V20.7868C28.1325 22.6623 27.5074 24.5378 26.1007 26.1007C24.6941 27.5074 22.8186 28.1325 20.7868 28.1325H10.4716C8.59607 28.1325 6.72056 27.5074 5.15765 26.1007C3.90731 24.6941 3.12585 22.8186 3.12585 20.7868V15.6292V10.4716C3.12585 8.43977 3.90731 6.56427 5.15765 5.15765C6.72056 3.90731 8.59607 3.12585 10.4716 3.12585H20.7868C22.6623 3.12585 24.5378 3.75102 26.1007 5.15765C27.3511 6.56427 28.1325 8.43977 28.1325 10.4716V15.6292Z" fill="white"/>
</svg>
