<svg width="45" height="43" viewBox="0 0 45 43" fill="none" xmlns="http://www.w3.org/2000/svg">
<path d="M22.5 0C10.0734 0 0 9.62573 0 21.5C0 33.3743 10.0734 43 22.5 43C34.9266 43 45 33.3743 45 21.5C45 9.62573 34.9266 0 22.5 0ZM16.9922 30.4113H12.4359V16.4005H16.9922V30.4113ZM14.6859 14.6805C13.2469 14.6805 12.3164 13.7062 12.3164 12.5014C12.3164 11.2718 13.275 10.3267 14.7445 10.3267C16.2141 10.3267 17.1141 11.2718 17.1422 12.5014C17.1422 13.7062 16.2141 14.6805 14.6859 14.6805ZM33.6328 30.4113H29.0766V22.6467C29.0766 20.8393 28.4156 19.612 26.768 19.612C25.5094 19.612 24.7617 20.4429 24.4313 21.2424C24.3094 21.5269 24.2789 21.93 24.2789 22.3309V30.4091H19.7203V20.8684C19.7203 19.1193 19.6617 17.6569 19.6008 16.3982H23.5594L23.768 18.3444H23.8594C24.4594 17.4307 25.9289 16.0824 28.3875 16.0824C31.3852 16.0824 33.6328 18.0018 33.6328 22.1271V30.4113V30.4113Z" fill="#504F60"/>
</svg>
