<svg width="31" height="25" viewBox="0 0 31 25" fill="none" xmlns="http://www.w3.org/2000/svg">
<path d="M27.6373 6.23042C27.6577 6.50451 27.6577 6.77703 27.6577 7.04956C27.6577 15.3897 21.3098 25 9.70878 25C6.13466 25 2.81428 23.9647 0.0201416 22.1667C0.527597 22.2247 1.01626 22.245 1.54407 22.245C4.38362 22.2519 7.14275 21.3024 9.37674 19.5496C8.06021 19.5257 6.78398 19.0914 5.72625 18.3071C4.66853 17.5229 3.8821 16.4279 3.47679 15.1751C3.86678 15.2331 4.25833 15.2722 4.66868 15.2722C5.23409 15.2722 5.80262 15.1939 6.33044 15.0576C4.90167 14.7692 3.61692 13.9947 2.69465 12.866C1.77237 11.7373 1.2695 10.324 1.27155 8.86637V8.78806C2.11261 9.25636 3.08837 9.54924 4.12207 9.5884C3.25609 9.01294 2.54602 8.23209 2.05519 7.31548C1.56437 6.39888 1.30806 5.37504 1.30914 4.3353C1.30914 3.16376 1.62082 2.08934 2.16743 1.15274C3.75266 3.10271 5.7298 4.69797 7.9708 5.8352C10.2118 6.97243 12.6667 7.62626 15.1764 7.75435C15.0793 7.28449 15.0198 6.79739 15.0198 6.30873C15.0194 5.48014 15.1823 4.65959 15.4992 3.894C15.8161 3.1284 16.2808 2.43277 16.8667 1.84687C17.4526 1.26097 18.1482 0.796284 18.9138 0.479386C19.6794 0.162488 20.5 -0.000410944 21.3286 7.7851e-07C23.1454 7.7851e-07 24.7852 0.761183 25.9379 1.99223C27.3503 1.71911 28.7047 1.20352 29.9412 0.4683C29.4704 1.92616 28.4842 3.16236 27.1674 3.94531C28.4201 3.80244 29.6443 3.47302 30.7995 2.96799C29.9367 4.22582 28.8676 5.32882 27.6373 6.23042V6.23042Z" fill="white"/>
</svg>
