<svg width="32" height="32" viewBox="0 0 32 32" fill="none" xmlns="http://www.w3.org/2000/svg">
<path d="M31.4101 9.14446C31.245 8.54126 30.9225 7.99117 30.4745 7.54892C30.0266 7.10668 29.4689 6.78771 28.857 6.62376C26.5879 6.01 17.51 6.00001 17.51 6.00001C17.51 6.00001 8.43366 5.99002 6.16311 6.57666C5.55154 6.74815 4.99498 7.07163 4.54688 7.51604C4.09877 7.96046 3.77417 8.51089 3.60422 9.11448C3.0058 11.3497 3 15.9857 3 15.9857C3 15.9857 2.99421 20.6446 3.58829 22.857C3.92155 24.0802 4.89961 25.0465 6.14283 25.3762C8.43511 25.99 17.4883 26 17.4883 26C17.4883 26 26.5661 26.01 28.8352 25.4248C29.4474 25.2611 30.0056 24.9429 30.4547 24.5015C30.9037 24.0602 31.228 23.511 31.3956 22.9084C31.9954 20.6746 31.9998 16.04 31.9998 16.04C31.9998 16.04 32.0288 11.3797 31.4101 9.14446V9.14446ZM14.6063 20.2806L14.6135 11.7165L22.1583 16.0057L14.6063 20.2806V20.2806Z" fill="white"/>
</svg>
