<svg width="830" height="448" viewBox="0 0 830 448" fill="none" xmlns="http://www.w3.org/2000/svg">
<g clip-path="url(#clip0)">
<path opacity="0.1" d="M830 287.551C830.01 299.722 828.337 311.835 825.03 323.547C821.833 334.838 817.131 345.647 811.049 355.682C811.049 392.04 786.512 423.464 750.896 438.414C736.013 444.598 720.048 447.756 703.933 447.703H157.562C128.36 447.703 101.298 439.822 79.1039 426.396C72.7522 422.571 66.7268 418.229 61.0891 413.413C36.4213 392.207 21.1272 362.903 21.1272 330.536C7.28289 309.212 -0.0580276 284.319 -2.51324e-05 258.893C-2.51324e-05 205.654 31.4805 159.876 76.5791 139.665C82.5677 136.982 88.7557 134.769 95.0872 133.046C97.3267 132.437 99.5903 131.89 101.878 131.406C107.977 130.107 114.163 129.258 120.386 128.866C122.635 128.726 124.897 128.646 127.17 128.627H128.418C130.928 128.627 133.417 128.714 135.891 128.859L136.703 127.48C137.7 125.816 138.72 124.168 139.765 122.538C141.651 119.567 143.63 116.64 145.7 113.757C147.867 110.713 150.128 107.719 152.483 104.772L153.086 104.046C154.421 102.382 155.785 100.737 157.178 99.1116C161.531 94.0364 166.126 89.1136 170.963 84.3432C223.28 33.0495 305.243 0.0293579 397.384 0.0293579C469.081 0.0293579 534.617 20.0229 584.816 53.0575C603.834 42.2927 625.316 36.6442 647.168 36.6636C718.081 36.6636 775.586 94.9895 775.586 166.937C775.575 171.49 775.333 176.038 774.86 180.566C791.954 192.67 805.886 208.708 815.483 227.328C825.08 245.948 830.059 266.603 830 287.551Z" fill="#6C63FF"/>
<path opacity="0.2" d="M170.977 84.3139V99.0822H157.192C161.511 94.0119 166.106 89.0891 170.977 84.3139Z" fill="#6C63FF"/>
<path opacity="0.2" d="M196.276 80.5692H177.768V99.0822H196.276V80.5692Z" fill="#6C63FF"/>
<path opacity="0.2" d="M221.568 80.5692H203.06V99.0822H221.568V80.5692Z" fill="#6C63FF"/>
<path opacity="0.2" d="M246.867 80.5692H228.359V99.0822H246.867V80.5692Z" fill="#6C63FF"/>
<path opacity="0.2" d="M272.159 80.5692H253.651V99.0822H272.159V80.5692Z" fill="#6C63FF"/>
<path opacity="0.2" d="M297.458 80.5692H278.95V99.0822H297.458V80.5692Z" fill="#6C63FF"/>
<path d="M322.757 80.5692H304.249V99.0822H322.757V80.5692Z" fill="#6C63FF"/>
<path opacity="0.2" d="M348.049 80.5692H329.541V99.0822H348.049V80.5692Z" fill="#6C63FF"/>
<path opacity="0.2" d="M373.348 80.5692H354.839V99.0822H373.348V80.5692Z" fill="#6C63FF"/>
<path opacity="0.2" d="M398.639 80.5692H380.131V99.0822H398.639V80.5692Z" fill="#6C63FF"/>
<path d="M423.938 80.5692H405.43V99.0822H423.938V80.5692Z" fill="#6C63FF"/>
<path opacity="0.2" d="M449.237 80.5692H430.729V99.0822H449.237V80.5692Z" fill="#6C63FF"/>
<path opacity="0.2" d="M474.529 80.5692H456.021V99.0822H474.529V80.5692Z" fill="#6C63FF"/>
<path opacity="0.2" d="M499.828 80.5692H481.32V99.0822H499.828V80.5692Z" fill="#6C63FF"/>
<path opacity="0.2" d="M525.127 80.5692H506.619V99.0822H525.127V80.5692Z" fill="#6C63FF"/>
<path opacity="0.2" d="M550.419 80.5692H531.911V99.0822H550.419V80.5692Z" fill="#6C63FF"/>
<path opacity="0.2" d="M575.718 80.5692H557.21V99.0822H575.718V80.5692Z" fill="#6C63FF"/>
<path d="M601.01 80.5692H582.502V99.0822H601.01V80.5692Z" fill="#6C63FF"/>
<path d="M626.309 80.5692H607.801V99.0822H626.309V80.5692Z" fill="#6C63FF"/>
<path opacity="0.2" d="M651.608 80.5692H633.1V99.0822H651.608V80.5692Z" fill="#6C63FF"/>
<path opacity="0.2" d="M676.9 80.5692H658.392V99.0822H676.9V80.5692Z" fill="#6C63FF"/>
<path d="M702.199 80.5692H683.691V99.0822H702.199V80.5692Z" fill="#6C63FF"/>
<path d="M727.491 80.5692H708.983V99.0822H727.491V80.5692Z" fill="#6C63FF"/>
<path d="M145.685 113.749V122.53H139.75C141.637 119.54 143.615 116.613 145.685 113.749Z" fill="#6C63FF"/>
<path opacity="0.2" d="M170.977 104.017H152.469V122.53H170.977V104.017Z" fill="#6C63FF"/>
<path d="M196.276 104.017H177.768V122.53H196.276V104.017Z" fill="#6C63FF"/>
<path opacity="0.2" d="M221.568 104.017H203.06V122.53H221.568V104.017Z" fill="#6C63FF"/>
<path opacity="0.7" d="M246.867 104.017H228.359V122.53H246.867V104.017Z" fill="#6C63FF"/>
<path opacity="0.2" d="M272.159 104.017H253.651V122.53H272.159V104.017Z" fill="#6C63FF"/>
<path opacity="0.4" d="M297.458 104.017H278.95V122.53H297.458V104.017Z" fill="#6C63FF"/>
<path d="M322.757 104.017H304.249V122.53H322.757V104.017Z" fill="#6C63FF"/>
<path opacity="0.4" d="M348.049 104.017H329.541V122.53H348.049V104.017Z" fill="#6C63FF"/>
<path opacity="0.2" d="M373.348 104.017H354.839V122.53H373.348V104.017Z" fill="#6C63FF"/>
<path opacity="0.4" d="M398.639 104.017H380.131V122.53H398.639V104.017Z" fill="#6C63FF"/>
<path d="M423.938 104.017H405.43V122.53H423.938V104.017Z" fill="#6C63FF"/>
<path opacity="0.4" d="M449.237 104.017H430.729V122.53H449.237V104.017Z" fill="#6C63FF"/>
<path opacity="0.4" d="M474.529 104.017H456.021V122.53H474.529V104.017Z" fill="#6C63FF"/>
<path opacity="0.2" d="M499.828 104.017H481.32V122.53H499.828V104.017Z" fill="#6C63FF"/>
<path opacity="0.4" d="M525.127 104.017H506.619V122.53H525.127V104.017Z" fill="#6C63FF"/>
<path opacity="0.4" d="M550.419 104.017H531.911V122.53H550.419V104.017Z" fill="#6C63FF"/>
<path opacity="0.2" d="M575.718 104.017H557.21V122.53H575.718V104.017Z" fill="#6C63FF"/>
<path opacity="0.2" d="M601.01 104.017H582.502V122.53H601.01V104.017Z" fill="#6C63FF"/>
<path opacity="0.4" d="M626.309 104.017H607.801V122.53H626.309V104.017Z" fill="#6C63FF"/>
<path opacity="0.2" d="M651.608 104.017H633.1V122.53H651.608V104.017Z" fill="#6C63FF"/>
<path d="M676.9 104.017H658.392V122.53H676.9V104.017Z" fill="#6C63FF"/>
<path d="M702.199 104.017H683.691V122.53H702.199V104.017Z" fill="#6C63FF"/>
<path d="M727.491 104.017H708.983V122.53H727.491V104.017Z" fill="#6C63FF"/>
<path opacity="0.2" d="M95.0872 133.046V145.985H76.5791V139.664C82.5677 136.982 88.7557 134.769 95.0872 133.046Z" fill="#6C63FF"/>
<path opacity="0.2" d="M120.386 128.866V145.985H101.878V131.406L120.386 128.866Z" fill="#6C63FF"/>
<path d="M145.678 127.472H127.17V145.985H145.678V127.472Z" fill="#6C63FF"/>
<path opacity="0.7" d="M170.977 127.472H152.469V145.985H170.977V127.472Z" fill="#6C63FF"/>
<path d="M196.276 127.472H177.768V145.985H196.276V127.472Z" fill="#6C63FF"/>
<path opacity="0.7" d="M221.568 127.472H203.06V145.985H221.568V127.472Z" fill="#6C63FF"/>
<path opacity="0.7" d="M246.867 127.472H228.359V145.985H246.867V127.472Z" fill="#6C63FF"/>
<path opacity="0.2" d="M272.159 127.472H253.651V145.985H272.159V127.472Z" fill="#6C63FF"/>
<path opacity="0.4" d="M297.458 127.472H278.95V145.985H297.458V127.472Z" fill="#6C63FF"/>
<path opacity="0.4" d="M322.757 127.472H304.249V145.985H322.757V127.472Z" fill="#6C63FF"/>
<path d="M348.049 127.472H329.541V145.985H348.049V127.472Z" fill="#6C63FF"/>
<path opacity="0.2" d="M373.348 127.472H354.839V145.985H373.348V127.472Z" fill="#6C63FF"/>
<path opacity="0.4" d="M398.639 127.472H380.131V145.985H398.639V127.472Z" fill="#6C63FF"/>
<path d="M423.938 127.472H405.43V145.985H423.938V127.472Z" fill="#6C63FF"/>
<path opacity="0.2" d="M449.237 127.472H430.729V145.985H449.237V127.472Z" fill="#6C63FF"/>
<path opacity="0.4" d="M474.529 127.472H456.021V145.985H474.529V127.472Z" fill="#6C63FF"/>
<path opacity="0.2" d="M499.828 127.472H481.32V145.985H499.828V127.472Z" fill="#6C63FF"/>
<path d="M525.127 127.472H506.619V145.985H525.127V127.472Z" fill="#6C63FF"/>
<path opacity="0.2" d="M550.419 127.472H531.911V145.985H550.419V127.472Z" fill="#6C63FF"/>
<path opacity="0.7" d="M575.718 127.472H557.21V145.985H575.718V127.472Z" fill="#6C63FF"/>
<path opacity="0.7" d="M601.01 127.472H582.502V145.985H601.01V127.472Z" fill="#6C63FF"/>
<path opacity="0.4" d="M626.309 127.472H607.801V145.985H626.309V127.472Z" fill="#6C63FF"/>
<path opacity="0.2" d="M651.608 127.472H633.1V145.985H651.608V127.472Z" fill="#6C63FF"/>
<path d="M676.9 127.472H658.392V145.985H676.9V127.472Z" fill="#6C63FF"/>
<path d="M702.199 127.472H683.691V145.985H702.199V127.472Z" fill="#6C63FF"/>
<path d="M727.491 127.472H708.983V145.985H727.491V127.472Z" fill="#6C63FF"/>
<path opacity="0.2" d="M95.0872 150.92H76.5791V169.433H95.0872V150.92Z" fill="#6C63FF"/>
<path opacity="0.2" d="M120.386 150.92H101.878V169.433H120.386V150.92Z" fill="#6C63FF"/>
<path opacity="0.2" d="M145.678 150.92H127.17V169.433H145.678V150.92Z" fill="#6C63FF"/>
<path opacity="0.2" d="M170.977 150.92H152.469V169.433H170.977V150.92Z" fill="#6C63FF"/>
<path d="M196.276 150.92H177.768V169.433H196.276V150.92Z" fill="#6C63FF"/>
<path opacity="0.7" d="M221.568 150.92H203.06V169.433H221.568V150.92Z" fill="#6C63FF"/>
<path opacity="0.7" d="M246.867 150.92H228.359V169.433H246.867V150.92Z" fill="#6C63FF"/>
<path opacity="0.2" d="M272.159 150.92H253.651V169.433H272.159V150.92Z" fill="#6C63FF"/>
<path opacity="0.2" d="M297.458 150.92H278.95V169.433H297.458V150.92Z" fill="#6C63FF"/>
<path opacity="0.4" d="M322.757 150.92H304.249V169.433H322.757V150.92Z" fill="#6C63FF"/>
<path opacity="0.4" d="M348.049 150.92H329.541V169.433H348.049V150.92Z" fill="#6C63FF"/>
<path d="M373.348 150.92H354.839V169.433H373.348V150.92Z" fill="#6C63FF"/>
<path opacity="0.2" d="M398.639 150.92H380.131V169.433H398.639V150.92Z" fill="#6C63FF"/>
<path opacity="0.4" d="M423.938 150.92H405.43V169.433H423.938V150.92Z" fill="#6C63FF"/>
<path opacity="0.4" d="M449.237 150.92H430.729V169.433H449.237V150.92Z" fill="#6C63FF"/>
<path opacity="0.4" d="M474.529 150.92H456.021V169.433H474.529V150.92Z" fill="#6C63FF"/>
<path opacity="0.4" d="M499.828 150.92H481.32V169.433H499.828V150.92Z" fill="#6C63FF"/>
<path opacity="0.2" d="M525.127 150.92H506.619V169.433H525.127V150.92Z" fill="#6C63FF"/>
<path opacity="0.2" d="M550.419 150.92H531.911V169.433H550.419V150.92Z" fill="#6C63FF"/>
<path opacity="0.2" d="M575.718 150.92H557.21V169.433H575.718V150.92Z" fill="#6C63FF"/>
<path opacity="0.2" d="M601.01 150.92H582.502V169.433H601.01V150.92Z" fill="#6C63FF"/>
<path opacity="0.7" d="M626.309 150.92H607.801V169.433H626.309V150.92Z" fill="#6C63FF"/>
<path opacity="0.7" d="M651.608 150.92H633.1V169.433H651.608V150.92Z" fill="#6C63FF"/>
<path opacity="0.4" d="M676.9 150.92H658.392V169.433H676.9V150.92Z" fill="#6C63FF"/>
<path opacity="0.2" d="M702.199 150.92H683.691V169.433H702.199V150.92Z" fill="#6C63FF"/>
<path d="M727.491 150.92H708.983V169.433H727.491V150.92Z" fill="#6C63FF"/>
<path opacity="0.2" d="M95.0872 174.375H76.5791V192.888H95.0872V174.375Z" fill="#6C63FF"/>
<path opacity="0.2" d="M120.386 174.375H101.878V192.888H120.386V174.375Z" fill="#6C63FF"/>
<path opacity="0.4" d="M145.678 174.375H127.17V192.888H145.678V174.375Z" fill="#6C63FF"/>
<path opacity="0.2" d="M170.977 174.375H152.469V192.888H170.977V174.375Z" fill="#6C63FF"/>
<path opacity="0.2" d="M196.276 174.375H177.768V192.888H196.276V174.375Z" fill="#6C63FF"/>
<path opacity="0.7" d="M221.568 174.375H203.06V192.888H221.568V174.375Z" fill="#6C63FF"/>
<path opacity="0.7" d="M246.867 174.375H228.359V192.888H246.867V174.375Z" fill="#6C63FF"/>
<path opacity="0.2" d="M272.159 174.375H253.651V192.888H272.159V174.375Z" fill="#6C63FF"/>
<path opacity="0.2" d="M297.458 174.375H278.95V192.888H297.458V174.375Z" fill="#6C63FF"/>
<path opacity="0.4" d="M322.757 174.375H304.249V192.888H322.757V174.375Z" fill="#6C63FF"/>
<path d="M348.049 174.375H329.541V192.888H348.049V174.375Z" fill="#6C63FF"/>
<path opacity="0.2" d="M373.348 174.375H354.839V192.888H373.348V174.375Z" fill="#6C63FF"/>
<path d="M398.639 174.375H380.131V192.888H398.639V174.375Z" fill="#6C63FF"/>
<path d="M423.938 174.375H405.43V192.888H423.938V174.375Z" fill="#6C63FF"/>
<path d="M449.237 174.375H430.729V192.888H449.237V174.375Z" fill="#6C63FF"/>
<path opacity="0.2" d="M474.529 174.375H456.021V192.888H474.529V174.375Z" fill="#6C63FF"/>
<path d="M499.828 174.375H481.32V192.888H499.828V174.375Z" fill="#6C63FF"/>
<path opacity="0.2" d="M525.127 174.375H506.619V192.888H525.127V174.375Z" fill="#6C63FF"/>
<path opacity="0.2" d="M550.419 174.375H531.911V192.888H550.419V174.375Z" fill="#6C63FF"/>
<path opacity="0.2" d="M575.718 174.375H557.21V192.888H575.718V174.375Z" fill="#6C63FF"/>
<path opacity="0.2" d="M601.01 174.375H582.502V192.888H601.01V174.375Z" fill="#6C63FF"/>
<path opacity="0.2" d="M626.309 174.375H607.801V192.888H626.309V174.375Z" fill="#6C63FF"/>
<path opacity="0.7" d="M651.608 174.375H633.1V192.888H651.608V174.375Z" fill="#6C63FF"/>
<path opacity="0.2" d="M676.9 174.375H658.392V192.888H676.9V174.375Z" fill="#6C63FF"/>
<path opacity="0.2" d="M702.199 174.375H683.691V192.888H702.199V174.375Z" fill="#6C63FF"/>
<path d="M727.491 174.375H708.983V192.888H727.491V174.375Z" fill="#6C63FF"/>
<path opacity="0.2" d="M95.0872 197.823H76.5791V216.336H95.0872V197.823Z" fill="#6C63FF"/>
<path opacity="0.2" d="M120.386 197.823H101.878V216.336H120.386V197.823Z" fill="#6C63FF"/>
<path opacity="0.2" d="M145.678 197.823H127.17V216.336H145.678V197.823Z" fill="#6C63FF"/>
<path opacity="0.4" d="M170.977 197.823H152.469V216.336H170.977V197.823Z" fill="#6C63FF"/>
<path opacity="0.2" d="M196.276 197.823H177.768V216.336H196.276V197.823Z" fill="#6C63FF"/>
<path opacity="0.2" d="M221.568 197.823H203.06V216.336H221.568V197.823Z" fill="#6C63FF"/>
<path opacity="0.7" d="M246.867 197.823H228.359V216.336H246.867V197.823Z" fill="#6C63FF"/>
<path opacity="0.2" d="M272.159 197.823H253.651V216.336H272.159V197.823Z" fill="#6C63FF"/>
<path opacity="0.2" d="M297.458 197.823H278.95V216.336H297.458V197.823Z" fill="#6C63FF"/>
<path opacity="0.2" d="M322.757 197.823H304.249V216.336H322.757V197.823Z" fill="#6C63FF"/>
<path d="M348.049 197.823H329.541V216.336H348.049V197.823Z" fill="#6C63FF"/>
<path opacity="0.2" d="M373.348 197.823H354.839V216.336H373.348V197.823Z" fill="#6C63FF"/>
<path d="M398.639 197.823H380.131V216.336H398.639V197.823Z" fill="#6C63FF"/>
<path d="M423.938 197.823H405.43V216.336H423.938V197.823Z" fill="#6C63FF"/>
<path opacity="0.2" d="M449.237 197.823H430.729V216.336H449.237V197.823Z" fill="#6C63FF"/>
<path opacity="0.2" d="M474.529 197.823H456.021V216.336H474.529V197.823Z" fill="#6C63FF"/>
<path opacity="0.2" d="M499.828 197.823H481.32V216.336H499.828V197.823Z" fill="#6C63FF"/>
<path opacity="0.2" d="M525.127 197.823H506.619V216.336H525.127V197.823Z" fill="#6C63FF"/>
<path opacity="0.2" d="M550.419 197.823H531.911V216.336H550.419V197.823Z" fill="#6C63FF"/>
<path opacity="0.2" d="M575.718 197.823H557.21V216.336H575.718V197.823Z" fill="#6C63FF"/>
<path opacity="0.2" d="M601.01 197.823H582.502V216.336H601.01V197.823Z" fill="#6C63FF"/>
<path opacity="0.2" d="M626.309 197.823H607.801V216.336H626.309V197.823Z" fill="#6C63FF"/>
<path opacity="0.2" d="M651.608 197.823H633.1V216.336H651.608V197.823Z" fill="#6C63FF"/>
<path opacity="0.2" d="M676.9 197.823H658.392V216.336H676.9V197.823Z" fill="#6C63FF"/>
<path opacity="0.4" d="M702.199 197.823H683.691V216.336H702.199V197.823Z" fill="#6C63FF"/>
<path d="M727.491 197.823H708.983V216.336H727.491V197.823Z" fill="#6C63FF"/>
<path opacity="0.7" d="M95.0872 221.279H76.5791V239.792H95.0872V221.279Z" fill="#6C63FF"/>
<path opacity="0.7" d="M120.386 221.279H101.878V239.792H120.386V221.279Z" fill="#6C63FF"/>
<path opacity="0.7" d="M145.678 221.279H127.17V239.792H145.678V221.279Z" fill="#6C63FF"/>
<path opacity="0.7" d="M170.977 221.279H152.469V239.792H170.977V221.279Z" fill="#6C63FF"/>
<path opacity="0.7" d="M196.276 221.279H177.768V239.792H196.276V221.279Z" fill="#6C63FF"/>
<path opacity="0.2" d="M221.568 221.279H203.06V239.792H221.568V221.279Z" fill="#6C63FF"/>
<path opacity="0.2" d="M246.867 221.279H228.359V239.792H246.867V221.279Z" fill="#6C63FF"/>
<path opacity="0.2" d="M272.159 221.279H253.651V239.792H272.159V221.279Z" fill="#6C63FF"/>
<path opacity="0.2" d="M297.458 221.279H278.95V239.792H297.458V221.279Z" fill="#6C63FF"/>
<path opacity="0.2" d="M322.757 221.279H304.249V239.792H322.757V221.279Z" fill="#6C63FF"/>
<path opacity="0.2" d="M348.049 221.279H329.541V239.792H348.049V221.279Z" fill="#6C63FF"/>
<path d="M373.348 221.279H354.839V239.792H373.348V221.279Z" fill="#6C63FF"/>
<path opacity="0.2" d="M398.639 221.279H380.131V239.792H398.639V221.279Z" fill="#6C63FF"/>
<path opacity="0.2" d="M423.938 221.279H405.43V239.792H423.938V221.279Z" fill="#6C63FF"/>
<path opacity="0.2" d="M449.237 221.279H430.729V239.792H449.237V221.279Z" fill="#6C63FF"/>
<path d="M474.529 221.279H456.021V239.792H474.529V221.279Z" fill="#6C63FF"/>
<path opacity="0.2" d="M499.828 221.279H481.32V239.792H499.828V221.279Z" fill="#6C63FF"/>
<path opacity="0.2" d="M525.127 221.279H506.619V239.792H525.127V221.279Z" fill="#6C63FF"/>
<path opacity="0.2" d="M550.419 221.279H531.911V239.792H550.419V221.279Z" fill="#6C63FF"/>
<path opacity="0.2" d="M575.718 221.279H557.21V239.792H575.718V221.279Z" fill="#6C63FF"/>
<path opacity="0.2" d="M601.01 221.279H582.502V239.792H601.01V221.279Z" fill="#6C63FF"/>
<path opacity="0.2" d="M626.309 221.279H607.801V239.792H626.309V221.279Z" fill="#6C63FF"/>
<path opacity="0.2" d="M651.608 221.279H633.1V239.792H651.608V221.279Z" fill="#6C63FF"/>
<path opacity="0.2" d="M676.9 221.279H658.392V239.792H676.9V221.279Z" fill="#6C63FF"/>
<path opacity="0.2" d="M702.199 221.279H683.691V239.792H702.199V221.279Z" fill="#6C63FF"/>
<path d="M727.491 221.279H708.983V239.792H727.491V221.279Z" fill="#6C63FF"/>
<path d="M532.912 289.387C546.885 289.387 558.211 278.057 558.211 264.081C558.211 250.105 546.885 238.776 532.912 238.776C518.94 238.776 507.613 250.105 507.613 264.081C507.613 278.057 518.94 289.387 532.912 289.387Z" fill="#767D9F"/>
<path d="M531.599 231.889C534.124 242.91 536.267 254.013 538.027 265.199C538.557 268.523 539.028 272.028 537.824 275.17C536.816 277.79 534.762 279.837 533.152 282.13C531.541 284.423 530.322 287.362 531.302 289.99C532.281 292.617 535.14 294.054 537.868 294.794C545.674 296.898 553.996 295.367 561.766 293.088C565.285 292.182 568.658 290.785 571.786 288.937C575.08 286.847 577.779 283.944 580.26 280.954C591.585 267.216 599 250.728 605.98 234.341C601.495 234.75 596.977 234.085 592.8 232.401C588.623 230.718 584.907 228.065 581.958 224.66C579.099 221.3 577.002 216.619 578.613 212.512C573.89 215.103 568.282 215.277 563.196 217.048C560.042 218.253 557.006 219.747 554.127 221.511C550.654 223.519 547.2 225.565 543.766 227.65C539.841 230.016 536.163 232.121 531.599 231.889Z" fill="#AE6E79"/>
<path d="M584.512 250.888C580.079 259.517 574.311 267.812 566.076 272.95C557.841 278.088 546.755 279.481 538.506 274.401C534.443 271.919 531.367 268.145 527.819 264.967C524.271 261.788 519.838 259.067 515.072 259.48C509.819 259.938 505.705 264.038 502.186 267.964C496.846 273.929 491.688 280.149 487.908 287.21C480.653 300.781 478.933 316.645 479.252 332.03C479.572 347.416 481.799 362.721 481.85 378.106C481.922 397.033 478.716 415.807 475.472 434.451C505.291 430.779 535.147 438.805 565.031 441.846C584.156 443.813 603.426 443.769 622.652 443.718C626.033 443.718 629.632 443.631 632.447 441.759C634.168 440.503 635.559 438.85 636.503 436.94C639.158 432.041 640.225 426.453 640.965 420.931C642.844 406.982 642.902 392.86 642.953 378.781C643.083 344.672 643.206 310.44 638.875 276.6C637.809 268.276 636.445 259.909 633.252 252.122C630.06 244.335 624.851 237.172 617.566 232.999C612.887 230.314 602.04 225.64 596.526 228.347C590.337 231.366 587.479 245.111 584.512 250.888Z" fill="#767D9F"/>
<path d="M586.717 347.205C585.593 326.159 581.015 303.698 590.758 285.018C593.153 280.432 584.562 274.706 587.218 270.264C590.458 264.849 592.916 259.003 594.517 252.898C595.068 250.801 595.51 248.58 594.988 246.475C594.023 242.636 590.229 240.35 587.007 238.014C583.452 235.43 581.624 227.556 580.478 223.296C579.331 219.036 589.597 224.167 593.726 222.65C599.457 220.553 606.742 221.874 612.459 224C615.651 225.176 619.119 225.277 622.522 225.364C629.131 225.539 635.763 225.705 642.321 224.893C645.267 224.523 648.22 223.964 651.18 224.131C658.733 224.559 665.299 229.726 669.768 235.836C674.237 241.947 677.081 249.066 680.745 255.685C683.8 261.2 687.442 266.411 690.046 272.151C692.353 277.231 693.812 282.689 695.256 288.117L698.977 302.044C699.629 304.036 699.938 306.124 699.892 308.22C699.703 310.447 698.716 312.523 697.715 314.504C693.929 321.847 689.389 328.777 684.17 335.18C676.341 344.781 666.837 353.439 662.186 364.934C660.372 369.412 659.364 374.173 658.442 378.919C654.727 397.902 652.087 417.079 650.534 436.359C642.057 432.435 633.17 429.464 624.038 427.498C619.486 426.524 614.884 425.797 610.253 425.321C606.197 424.9 600.966 425.699 597.107 424.596C590.649 422.759 589.938 411.837 588.959 406.119C587.392 397.011 587.08 387.744 587.022 378.542C586.949 368.077 587.276 357.634 586.717 347.205Z" fill="#4C4981"/>
<path d="M444.913 307.849C447.968 325.267 451.334 342.735 457.973 359.1C457.806 359.259 457.639 359.404 457.472 359.55C456.884 360.05 456.275 360.522 455.637 361.001C454.149 362.046 452.517 362.931 451.283 364.296C450.816 364.818 450.448 365.42 450.195 366.074C449.967 366.584 449.849 367.137 449.849 367.696C449.849 368.255 449.967 368.807 450.195 369.318C446.734 370.849 442.715 370.377 438.833 370.232C435.489 370.109 432.246 370.232 429.561 372.068C425.832 374.637 424.707 379.572 424.105 384.057C423.883 385.692 423.692 387.33 423.532 388.97C423.377 390.494 423.252 392.023 423.155 393.557C422.826 398.63 422.78 403.718 423.017 408.797C423.056 409.726 423.106 410.655 423.169 411.583C411.314 411.3 400.511 405.117 390.289 399.108C387.952 397.737 385.544 396.293 384.027 394.028C382.63 391.805 382.038 389.169 382.351 386.561C382.351 386.191 382.417 385.835 382.467 385.458C382.792 383.304 383.349 381.192 384.129 379.158C387.327 370.496 392.042 362.473 398.052 355.464C400.649 352.43 403.573 349.462 404.785 345.652C405.314 343.99 405.51 342.227 406.047 340.572C408.456 333.402 417.147 330.013 420.122 323.053C420.848 321.391 421.181 319.57 422.081 317.973C422.891 316.646 423.936 315.478 425.165 314.526C425.694 314.083 426.246 313.655 426.79 313.227C431.888 309.231 436.8 305.009 441.525 300.563C442.405 299.736 443.276 298.899 444.137 298.052C444.022 301.337 444.282 304.624 444.913 307.849Z" fill="#4C4981"/>
<path d="M518.024 256.338C516.98 257.441 515.848 258.479 514.738 259.509L514.44 259.778L513.265 260.866C511.132 262.708 509.285 264.858 507.787 267.246L507.664 267.449C503.964 274.075 505.335 282.232 506.365 289.757C507.643 299.136 508.218 308.596 508.085 318.06C507.896 331.123 506.358 344.099 506.329 357.147C506.329 360.108 506.394 363.062 506.525 366.023C506.735 370.834 507.098 375.639 507.533 380.443C508.005 385.712 508.571 390.973 509.1 396.235C509.521 400.306 509.92 404.37 510.254 408.434C510.421 410.538 510.581 412.636 510.711 414.74C510.863 417.208 510.987 419.682 511.059 422.15C511.11 423.717 511.139 425.278 511.139 426.845C511.139 427.738 511.139 428.623 511.139 429.509C511.139 431.207 511.093 432.9 511.001 434.589C510.905 436.761 510.757 438.938 510.559 441.12C510.334 443.493 509.935 446.084 508.266 447.753C508.165 447.855 508.056 447.949 507.947 448.044L505.596 447.753C489.392 445.813 473.032 445.521 456.768 446.882C457.124 444.429 457.45 441.984 457.77 439.524C457.915 438.362 458.06 437.194 458.198 436.026C458.357 434.69 458.51 433.355 458.655 432.02C458.822 430.568 458.974 429.117 459.119 427.665C459.496 423.926 459.828 420.183 460.113 416.439C460.534 410.976 460.853 405.504 461.071 400.023C461.177 397.405 461.259 394.786 461.317 392.163C461.4 388.912 461.438 385.658 461.434 382.402C461.434 379.238 461.407 376.069 461.354 372.895C461.354 371.85 461.31 370.805 461.223 369.768C461.161 368.833 461.032 367.904 460.839 366.988C460.3 364.875 459.571 362.816 458.662 360.834C458.502 360.457 458.35 360.108 458.198 359.709C458.111 359.513 458.031 359.31 457.951 359.114C462.13 355.391 465.105 350.405 467.963 345.5C472.599 337.597 477.344 329.345 478.121 320.216C478.897 311.086 474.362 300.832 465.642 298.045C463.269 297.319 460.759 297.116 458.314 296.688C456.007 296.281 451.196 295.36 448.526 293.705C447.075 295.195 445.624 296.659 444.173 298.096C444.261 295.903 444.797 293.752 445.748 291.775L446.778 291.826C446.694 291.593 446.655 291.347 446.662 291.1C446.662 290.323 447.199 289.445 448.345 288.473C451.762 285.57 457.138 284.924 459.293 280.998C460.193 279.365 460.345 277.42 461.071 275.707C463.153 270.823 469.131 269.024 472.73 265.119C476.329 261.215 477.228 255.685 480.138 251.331C482.311 248.151 485.325 245.638 488.844 244.073C489.134 243.935 489.432 243.798 489.729 243.674C495.751 241.098 502.905 240.51 509.144 240.525C511.567 240.525 517.85 240.597 520.927 241.824C521.425 242.002 521.882 242.281 522.269 242.644C525.548 246.214 520.448 253.754 518.024 256.338Z" fill="#4C4981"/>
<path d="M445.994 291.267C451.599 289.579 457.483 289.022 463.305 289.629C469.126 290.236 474.769 291.994 479.905 294.801C485.129 297.704 489.816 301.753 492.689 306.979C497.006 314.816 496.817 324.265 496.513 333.213C496.36 337.691 496.164 342.328 494.191 346.349C491.906 351.001 487.596 354.194 483.199 356.806C480.445 358.564 477.427 359.87 474.261 360.674C469.385 361.734 464.321 360.834 459.409 359.949C454.069 358.962 448.338 357.771 444.63 353.795C442.454 351.487 441.264 348.49 440.089 345.558C438.401 341.324 436.708 337.096 435.01 332.872C432.072 325.535 431.078 319.432 434.959 312.284C436.722 309.025 438.877 305.977 440.618 302.697C441.489 301.028 444.609 291.695 445.994 291.267Z" fill="#4C4981"/>
<path d="M750.918 416.722V438.421C736.035 444.605 720.07 447.762 703.955 447.71H508.288C508.186 447.811 508.078 447.906 507.969 448L505.618 447.71H157.562C128.36 447.71 101.298 439.828 79.1039 426.403V393.274L246.497 373.948H246.628L344.109 382.206L369.336 384.384L382.438 385.494L409.559 387.794L423.51 388.977L443.825 390.705L446.684 390.944L461.325 392.185L481.19 393.818L509.122 396.184L555.686 400.139L588.444 402.918L642.234 407.483L652.464 408.347L653.567 408.441L654.525 408.521L668.034 409.668L682.864 410.93L684.583 411.075L750.918 416.722Z" fill="#504F60"/>
<path d="M554.301 415.923L344.523 380.109L336.389 421.25L432.55 432.767L462.159 436.476L543.606 420.43L554.301 415.923Z" fill="#9C9CA1"/>
<path d="M445.711 434.415L550.811 414.653C551.337 414.553 551.878 414.57 552.397 414.703C552.915 414.836 553.398 415.083 553.81 415.425C554.222 415.767 554.553 416.196 554.779 416.681C555.006 417.166 555.122 417.696 555.12 418.231C555.123 419.081 554.827 419.904 554.285 420.558C553.742 421.211 552.988 421.654 552.153 421.809L449.513 441.033L445.711 434.415Z" fill="#9C9CA1"/>
<path d="M491.303 372.271C494.576 371.967 497.891 371.451 500.837 370C504.464 368.193 507.287 365.08 510.646 362.786C518.032 357.706 527.913 357.024 536.38 359.941C544.847 362.859 551.914 369.107 556.862 376.568C560.149 381.539 562.615 387.882 560.294 393.368C559.497 395.045 558.493 396.615 557.304 398.042L551.254 405.952C550.104 407.615 548.721 409.103 547.147 410.372C544.883 412.019 542.068 412.694 539.297 413.1C531.933 414.174 524.438 413.565 517.016 414.058C504.269 414.907 491.819 419.015 479.042 418.877C471.7 418.797 464.452 417.317 457.276 415.836L425.52 409.305C419.992 408.173 413.745 406.518 411.14 401.503C409.972 399.246 409.754 396.634 409.617 394.094C409.239 387.098 409.617 379.318 414.463 374.274C419.019 369.543 426.224 368.048 431.665 364.55C438.326 360.261 440.524 361.647 447.547 364.869C461.248 371.076 476.324 373.626 491.303 372.271Z" fill="#AE6E79"/>
<path opacity="0.05" d="M491.303 372.271C494.576 371.967 497.891 371.451 500.837 370C504.464 368.193 507.287 365.08 510.646 362.786C518.032 357.706 527.913 357.024 536.38 359.941C544.847 362.859 551.914 369.107 556.862 376.568C560.149 381.539 562.615 387.882 560.294 393.368C559.497 395.045 558.493 396.615 557.304 398.042L551.254 405.952C550.104 407.615 548.721 409.103 547.147 410.372C544.883 412.019 542.068 412.694 539.297 413.1C531.933 414.174 524.438 413.565 517.016 414.058C504.269 414.907 491.819 419.015 479.042 418.877C471.7 418.797 464.452 417.317 457.276 415.836L425.52 409.305C419.992 408.173 413.745 406.518 411.14 401.503C409.972 399.246 409.754 396.634 409.617 394.094C409.239 387.098 409.617 379.318 414.463 374.274C419.019 369.543 426.224 368.048 431.665 364.55C438.326 360.261 440.524 361.647 447.547 364.869C461.248 371.076 476.324 373.626 491.303 372.271Z" fill="black"/>
<path d="M618.829 362.322C609.919 365.769 600.959 369.231 591.629 371.284C575.987 374.732 559.619 374.187 544.1 378.128C535.901 380.218 527.754 383.585 519.33 382.903C515.565 382.598 511.93 381.452 508.266 380.581C487.683 375.501 464.285 377.148 447.569 390.211C441.852 394.674 437.172 400.241 432.928 406.177C432.02 407.459 431.406 408.926 431.13 410.473C430.855 412.02 430.924 413.609 431.334 415.126C431.743 416.643 432.483 418.051 433.5 419.249C434.517 420.447 435.786 421.405 437.216 422.056C443.716 425.046 450.68 426.904 457.806 427.549C467.332 428.391 476.902 427.041 486.377 425.691C500.438 423.696 514.506 421.693 528.53 419.45C533.565 418.645 538.6 417.81 543.665 417.171C580.108 412.563 617.211 418.166 653.748 414.319C657.441 413.928 661.199 413.42 664.559 411.845C673.062 407.853 677.27 397.33 675.514 388.085C673.758 378.839 666.982 371.154 658.827 366.437C651.993 362.467 644.621 360.863 637.011 359.179C629.944 357.532 625.634 359.709 618.829 362.322Z" fill="#AE6E79"/>
<path opacity="0.1" d="M696.99 307.051C701.009 312.32 701.865 319.388 701.43 325.985C700.994 332.582 699.427 339.106 699.195 345.732C698.876 354.818 701.067 363.875 700.697 372.932C700.436 379.267 698.934 385.479 697.156 391.561C695.06 398.738 692.027 406.453 685.403 409.9C676.61 414.479 658.167 411.903 648.916 415.488C649.758 410.241 657.826 402.643 658.667 397.396C659.248 393.767 659.835 390.037 659.212 386.401C658.413 381.764 655.693 377.649 652.464 374.224C647.327 368.773 640.624 364.673 633.26 363.338C625.895 362.002 607.866 363.098 601.975 367.75C601.249 362.946 614.744 358.316 619.489 357.278C621.854 356.748 624.568 357.046 626.461 355.544C630.089 352.699 627.455 347.031 627.629 342.481C627.767 338.852 629.886 335.528 630.314 331.9C631.039 326.094 627.252 320.179 628.74 314.482C629.291 312.378 630.517 310.527 631.366 308.524C633.949 302.392 632.817 295.396 631.438 288.879C630.582 284.786 629.748 280.171 632.026 276.68C634.137 273.421 640.13 285.026 643.968 284.489C656.643 282.711 668.114 273.312 678.351 281.005C683.567 284.924 684.249 288.988 686.332 294.583C688.356 299.91 693.601 302.639 696.99 307.051Z" fill="black"/>
<path d="M699.166 307.051C703.186 312.32 704.042 319.388 703.606 325.985C703.171 332.582 701.604 339.106 701.372 345.732C701.053 354.818 703.244 363.875 702.874 372.932C702.612 379.267 701.111 385.479 699.333 391.561C697.236 398.738 694.204 406.453 687.58 409.9C678.786 414.479 660.343 411.903 651.093 415.488C651.934 410.241 660.002 402.643 660.844 397.396C661.424 393.767 662.012 390.037 661.388 386.401C660.59 381.764 657.869 377.649 654.641 374.224C649.504 368.773 642.8 364.673 635.436 363.338C628.072 362.002 610.043 363.098 604.151 367.75C603.426 362.946 616.921 358.316 621.666 357.278C624.031 356.748 626.744 357.046 628.638 355.544C632.266 352.699 629.632 347.031 629.806 342.481C629.944 338.852 632.062 335.528 632.49 331.9C633.216 326.094 629.429 320.179 630.916 314.482C631.467 312.378 632.694 310.527 633.542 308.524C636.125 302.392 634.993 295.396 633.615 288.879C632.759 284.786 631.925 280.171 634.203 276.68C636.314 273.421 640.442 272.188 644.28 271.643C657.131 269.905 670.151 273.265 680.556 281.005C685.773 284.924 686.455 288.988 688.537 294.583C690.532 299.91 695.778 302.639 699.166 307.051Z" fill="#4C4981"/>
<path d="M219.108 272.667L258.555 418.492C259.039 420.279 260.056 421.876 261.47 423.07C262.884 424.264 264.629 424.999 266.471 425.176L444.021 442.238C445.468 442.377 446.927 442.168 448.277 441.627C449.626 441.087 450.827 440.231 451.777 439.13C452.728 438.03 453.401 436.718 453.741 435.304C454.08 433.89 454.076 432.416 453.729 431.004L410.531 255.104C410.017 253.013 408.778 251.173 407.035 249.909C405.293 248.645 403.158 248.041 401.012 248.203L227.183 261.208C225.849 261.311 224.554 261.708 223.39 262.37C222.226 263.032 221.223 263.943 220.452 265.038C219.681 266.132 219.16 267.383 218.928 268.702C218.696 270.021 218.757 271.374 219.108 272.667Z" fill="#9C9CA1"/>
<path d="M571.068 301.122C581.846 301.122 590.584 292.268 590.584 281.346C590.584 270.424 581.846 261.57 571.068 261.57C560.289 261.57 551.551 270.424 551.551 281.346C551.551 292.268 560.289 301.122 571.068 301.122Z" fill="white"/>
<path d="M587.094 245.271C587.094 245.271 591.208 257.506 579.07 262.652L577.517 265.366L585.121 272.87C585.121 272.87 594.495 255.765 593.479 249.69C593.479 249.69 592.028 243.522 587.094 245.271Z" fill="white"/>
<path d="M573.309 301.122C583.704 301.122 592.13 292.694 592.13 282.297C592.13 271.9 583.704 263.472 573.309 263.472C562.915 263.472 554.489 271.9 554.489 282.297C554.489 292.694 562.915 301.122 573.309 301.122Z" fill="#6C63FF"/>
<path d="M593.573 252.47L590.584 247.535L586.231 246.918C587.16 230.669 582.944 225.829 582.944 225.829L581.965 225.734L577.699 225.321L569.675 216.99V214.624C580.949 215.966 587.181 221.322 590.548 227.6C596.497 238.616 593.573 252.47 593.573 252.47Z" fill="#6C63FF"/>
<path opacity="0.1" d="M582.001 222.745V225.734L577.735 225.321L569.711 216.99C569.711 216.99 582.125 219.769 582.001 222.745Z" fill="black" stroke="#4C4981" stroke-miterlimit="10"/>
<path opacity="0.1" d="M593.573 252.47L590.584 247.535V227.629C596.497 238.616 593.573 252.47 593.573 252.47Z" fill="black" stroke="#4C4981" stroke-miterlimit="10"/>
<path d="M538.533 290.035C543.54 287.144 543.324 277.393 538.051 268.257C532.778 259.122 524.444 254.06 519.437 256.952C514.429 259.843 514.645 269.594 519.918 278.73C525.191 287.865 533.525 292.927 538.533 290.035Z" fill="white"/>
<path d="M531.81 271.897C537.084 281.034 543.556 287.137 538.55 290.04C533.544 292.943 518.961 291.492 513.686 282.348C508.411 273.204 513.2 260.576 518.206 257.673C523.212 254.77 526.528 262.739 531.81 271.897Z" fill="#6C63FF"/>
<path opacity="0.1" d="M578.773 206.075C578.773 235.27 558.799 263.406 529.611 263.406C515.593 263.406 502.149 257.836 492.237 247.922C482.325 238.007 476.757 224.56 476.757 210.538C476.757 196.516 482.325 183.069 492.237 173.154C502.149 163.239 515.593 157.669 529.611 157.669C558.799 157.698 578.773 176.872 578.773 206.075Z" fill="black"/>
<path d="M529.611 261.984C558.802 261.984 582.465 238.314 582.465 209.116C582.465 179.917 558.802 156.247 529.611 156.247C500.42 156.247 476.757 179.917 476.757 209.116C476.757 238.314 500.42 261.984 529.611 261.984Z" fill="#AE6E79"/>
<path d="M524.968 185.689C531.258 188.004 534.98 194.507 540.625 198.128C548.605 203.208 558.995 201.895 568.108 199.384C573.186 197.998 578.497 196.307 583.496 197.845C584.231 198.171 585.042 198.286 585.839 198.179C586.928 197.867 587.465 196.662 587.82 195.588C594.001 177.155 591.223 156.276 581.892 139.222C579.484 134.824 576.596 130.571 572.62 127.516C569.486 125.114 565.8 123.539 562.086 122.196C555.297 119.758 548.276 118.024 541.132 117.022C539.871 116.793 538.583 116.751 537.309 116.899C535.56 117.182 533.993 118.125 532.433 118.967C525.753 122.549 518.344 124.562 510.769 124.852C500.612 125.237 489.004 122.842 481.175 129.359C471.743 137.175 474.094 152.422 467.978 163.032C463.929 170.05 456.123 175.145 454.839 183.135C454.504 185.577 454.66 188.061 455.296 190.443C458.285 202.737 470.183 212.258 482.866 212.483C484.813 212.632 486.763 212.232 488.496 211.329C489.631 210.554 490.633 209.601 491.463 208.506C499.77 198.665 509.275 179.913 524.968 185.689Z" fill="#444053"/>
<path opacity="0.1" d="M587.82 190.24C587.464 191.314 586.927 192.518 585.839 192.83C585.042 192.938 584.231 192.822 583.496 192.497C578.497 190.958 573.157 192.649 568.115 194.035C558.995 196.546 548.584 197.889 540.632 192.78C534.98 189.151 531.265 182.62 524.968 180.341C509.275 174.535 499.77 193.317 491.441 203.157C490.611 204.252 489.609 205.206 488.474 205.98C486.742 206.883 484.791 207.283 482.844 207.134C470.205 206.909 458.299 197.388 455.274 185.094C455.107 184.369 454.962 183.643 454.853 182.917C454.853 182.982 454.853 183.04 454.817 183.106C454.482 185.548 454.638 188.032 455.274 190.414C458.263 202.707 470.169 212.229 482.844 212.454C484.791 212.602 486.742 212.203 488.474 211.3C489.609 210.525 490.611 209.572 491.441 208.477C499.77 198.636 509.275 179.884 524.968 185.66C531.265 187.975 534.98 194.478 540.632 198.099C548.613 203.179 558.995 201.866 568.115 199.355C573.193 197.969 578.497 196.278 583.496 197.816C584.231 198.142 585.042 198.257 585.839 198.15C586.927 197.838 587.464 196.633 587.82 195.559C590.313 188.017 591.415 180.084 591.07 172.147C590.857 178.303 589.762 184.395 587.82 190.24Z" fill="black"/>
</g>
<defs>
<clipPath id="clip0">
<rect width="830" height="448" fill="white"/>
</clipPath>
</defs>
</svg>
